<?xml version="1.0" encoding="UTF-8" standalone="no"?>
<svg
   xmlns:dc="http://purl.org/dc/elements/1.1/"
   xmlns:cc="http://creativecommons.org/ns#"
   xmlns:rdf="http://www.w3.org/1999/02/22-rdf-syntax-ns#"
   xmlns:svg="http://www.w3.org/2000/svg"
   xmlns="http://www.w3.org/2000/svg"
   xmlns:sodipodi="http://sodipodi.sourceforge.net/DTD/sodipodi-0.dtd"
   xmlns:inkscape="http://www.inkscape.org/namespaces/inkscape"
   version="1.1"
   x="0px"
   y="0px"
   viewBox="0 0 100 100"
   id="svg10"
   sodipodi:docname="standalone.svg"
   width="100"
   height="100"
   inkscape:version="0.92.0 r">
  <metadata
     id="metadata16">
    <rdf:RDF>
      <cc:Work
         rdf:about="">
        <dc:format>image/svg+xml</dc:format>
        <dc:type
           rdf:resource="http://purl.org/dc/dcmitype/StillImage" />
        <dc:title></dc:title>
      </cc:Work>
    </rdf:RDF>
  </metadata>
  <defs
     id="defs14" />
  <sodipodi:namedview
     pagecolor="#ffffff"
     bordercolor="#666666"
     borderopacity="1"
     objecttolerance="10"
     gridtolerance="10"
     guidetolerance="10"
     inkscape:pageopacity="0"
     inkscape:pageshadow="2"
     inkscape:window-width="1472"
     inkscape:window-height="803"
     id="namedview12"
     showgrid="false"
     inkscape:zoom="1.888"
     inkscape:cx="50"
     inkscape:cy="62.5"
     inkscape:window-x="0"
     inkscape:window-y="0"
     inkscape:window-maximized="0"
     inkscape:current-layer="svg10" />
  <g
     transform="translate(0,-952.36329)"
     id="g4">
    <path
       style="color:#000000;font-style:normal;font-variant:normal;font-weight:normal;font-stretch:normal;font-size:medium;line-height:normal;font-family:Sans;-inkscape-font-specification:Sans;text-indent:0;text-align:start;text-decoration:none;text-decoration-line:none;letter-spacing:normal;word-spacing:normal;text-transform:none;writing-mode:lr-tb;direction:ltr;baseline-shift:baseline;text-anchor:start;display:inline;overflow:visible;visibility:visible;opacity:1;fill:#000000;fill-opacity:1;stroke:none;stroke-width:4;marker:none;enable-background:accumulate"
       d="m 8,16 a 2.0002,2.0002 0 0 0 -2,2 v 44 a 2.0002,2.0002 0 0 0 2,2 h 32.4375 l -4,16 H 28 A 2.0002,2.0002 0 0 0 27.8125,80 2.0021961,2.0021961 0 1 0 28,84 h 44 a 2.0002,2.0002 0 1 0 0,-4 h -8.4375 l -4,-16 H 92 a 2.0002,2.0002 0 0 0 2,-2 V 18 a 2.0002,2.0002 0 0 0 -2,-2 z m 2,4 H 90 V 60 H 10 Z m 48,2 c -4.394589,0 -8,3.60541 -8,8 0,0.870303 0.144924,1.71308 0.40625,2.5 L 46,34.71875 C 44.528707,33.05205 42.377863,32 40,32 c -4.394589,0 -8,3.60541 -8,8 0,4.39459 3.605411,8 8,8 2.393546,0 4.559267,-1.064224 6.03125,-2.75 l 4.40625,2.21875 C 50.167855,48.266879 50,49.115339 50,50 c 0,4.3946 3.605411,8 8,8 4.394589,0 8,-3.6054 8,-8 0,-4.39459 -3.605411,-8 -8,-8 -2.040154,0 -3.892846,0.788749 -5.3125,2.0625 L 47.84375,41.65625 C 47.959137,41.118677 48,40.5701 48,40 48,39.417019 47.93301,38.861321 47.8125,38.3125 l 4.84375,-2.40625 C 54.079776,37.197336 55.944265,38 58,38 c 4.394589,0 8,-3.60541 8,-8 0,-4.39459 -3.605411,-8 -8,-8 z m 0,4 c 2.232828,0 4,1.76717 4,4 0,2.23283 -1.767172,4 -4,4 -2.232828,0 -4,-1.76717 -4,-4 0,-2.23283 1.767172,-4 4,-4 z M 40,36 c 2.232828,0 4,1.76717 4,4 0,2.23283 -1.767172,4 -4,4 -2.232828,0 -4,-1.76717 -4,-4 0,-2.23283 1.767172,-4 4,-4 z m 18,10 c 2.232828,0 4,1.7672 4,4 0,2.2328 -1.767172,4 -4,4 -2.232828,0 -4,-1.7672 -4,-4 0,-2.2328 1.767172,-4 4,-4 z M 44.5625,64 h 10.875 l 4,16 h -18.875 z"
       transform="translate(0,952.36218)"
       id="path2"
       inkscape:connector-curvature="0" />
  </g>
</svg>
